<svg width="25" height="24" viewBox="0 0 25 24" fill="none" xmlns="http://www.w3.org/2000/svg">
<path d="M19.7004 7.19998H4.70039V6.59998L17.9004 5.54398V6.59998H19.7004V4.79998C19.7004 3.47998 18.6312 2.55358 17.3256 2.73958L5.27639 4.46038C3.96959 4.64758 2.90039 5.87998 2.90039 7.19998V19.2C2.90039 19.8365 3.15325 20.447 3.60333 20.897C4.05342 21.3471 4.66387 21.6 5.30039 21.6H19.7004C20.3369 21.6 20.9474 21.3471 21.3974 20.897C21.8475 20.447 22.1004 19.8365 22.1004 19.2V9.59998C22.1004 8.96346 21.8475 8.35301 21.3974 7.90293C20.9474 7.45284 20.3369 7.19998 19.7004 7.19998ZM17.9004 15.6072C17.6639 15.6071 17.4298 15.5605 17.2114 15.4699C16.9929 15.3793 16.7945 15.2466 16.6274 15.0794C16.4602 14.9121 16.3276 14.7136 16.2372 14.4951C16.1468 14.2766 16.1003 14.0424 16.1004 13.806C16.1005 13.5695 16.1471 13.3354 16.2377 13.117C16.3282 12.8985 16.4609 12.7001 16.6282 12.5329C16.7955 12.3658 16.994 12.2332 17.2125 12.1428C17.431 12.0524 17.6651 12.0059 17.9016 12.006C18.3791 12.0061 18.8371 12.196 19.1746 12.5338C19.5122 12.8716 19.7017 13.3296 19.7016 13.8072C19.7014 14.2847 19.5116 14.7427 19.1738 15.0802C18.836 15.4178 18.3779 15.6073 17.9004 15.6072Z" fill="white" fill-opacity="0.5"/>
</svg>
