<svg width="24" height="24" viewBox="0 0 24 24" fill="none" xmlns="http://www.w3.org/2000/svg">
<path d="M7.13059 11.9318H4.35345C3.83916 11.9318 3.42773 12.3432 3.42773 12.8575V18.4803C3.42773 18.9946 3.83916 19.406 4.35345 19.406H7.13059C7.64488 19.406 8.05631 18.9946 8.05631 18.4803V12.8575C8.05631 12.3432 7.64488 11.9318 7.13059 11.9318ZM13.4049 9.77176H10.6277C10.1134 9.77176 9.70202 10.1832 9.70202 10.6975V18.4803C9.70202 18.9946 10.1134 19.406 10.6277 19.406H13.4049C13.9192 19.406 14.3306 18.9946 14.3306 18.4803V10.6975C14.2963 10.1832 13.8849 9.77176 13.4049 9.77176ZM19.6449 4.62891H16.8677C16.3535 4.62891 15.942 5.04034 15.942 5.55462V18.4803C15.942 18.9946 16.3535 19.406 16.8677 19.406H19.6449C20.1592 19.406 20.5706 18.9946 20.5706 18.4803V5.52033C20.5706 5.04033 20.1592 4.62891 19.6449 4.62891Z" fill="white" fill-opacity="0.5"/>
</svg>
