<svg width="25" height="24" viewBox="0 0 25 24" fill="none" xmlns="http://www.w3.org/2000/svg">
<g opacity="0.5" clip-path="url(#clip0_1_547)">
<path d="M8.45 7.42505C4.325 7.42505 0.96875 10.7813 0.96875 14.9063C0.96875 19.0313 4.325 22.3875 8.45 22.3875C12.575 22.3875 15.9313 19.0313 15.9313 14.9063C15.9125 10.7625 12.575 7.42505 8.45 7.42505Z" fill="white"/>
<path d="M16.5496 2.00586C13.9246 2.00586 11.6184 3.37461 10.2871 5.41836C11.0559 5.56836 11.7684 5.81211 12.4621 6.13086C13.4371 4.94961 14.8996 4.19961 16.5496 4.19961C19.4746 4.19961 21.8371 6.56211 21.8371 9.48711C21.8371 11.8684 20.2434 13.8934 18.0871 14.5496C18.0871 14.6621 18.1059 14.7746 18.1059 14.8871C18.1059 15.5434 18.0309 16.1996 17.9184 16.8184C21.4059 16.1809 24.0309 13.1246 24.0309 9.46836C24.0309 5.36211 20.6746 2.00586 16.5496 2.00586Z" fill="white"/>
</g>
<defs>
<clipPath id="clip0_1_547">
<rect width="24" height="24" fill="white" transform="translate(0.5)"/>
</clipPath>
</defs>
</svg>
