<svg width="14" height="18" viewBox="0 0 14 18" fill="none" xmlns="http://www.w3.org/2000/svg">
<path d="M3.965 3.1733C3.9756 3.1149 4 3.0615 4 3V1C4 0.4473 3.5522 0 3 0C2.4478 0 2 0.4473 2 1V3C2 3.0615 2.0244 3.1149 2.035 3.1733C0.8555 3.5776 0 4.6852 0 6V9C0 10.3019 0.8385 11.4016 2 11.8157V17C2 17.5527 2.4478 18 3 18C3.5522 18 4 17.5527 4 17V11.8157C5.1615 11.4016 6 10.3019 6 9V6C6 4.6852 5.1445 3.5776 3.965 3.1733ZM4 9C4 9.5518 3.5513 10 3 10C2.4487 10 2 9.5518 2 9V6C2 5.4482 2.4487 5 3 5C3.5513 5 4 5.4482 4 6V9ZM12 6.1843V1C12 0.4473 11.5522 0 11 0C10.4478 0 10 0.4473 10 1V6.1843C8.8385 6.5984 8 7.6981 8 9V13C8 14.3019 8.8385 15.4016 10 15.8157V17C10 17.5527 10.4478 18 11 18C11.5522 18 12 17.5527 12 17V15.8157C13.1615 15.4016 14 14.3019 14 13V9C14 7.6981 13.1615 6.5984 12 6.1843ZM12 13C12 13.5518 11.5513 14 11 14C10.4487 14 10 13.5518 10 13V9C10 8.4482 10.4487 8 11 8C11.5513 8 12 8.4482 12 9V13Z" fill="white"/>
</svg>
